solid OpenSCAD_Model
  facet normal -1 0 0
    outer loop
      vertex -7 0 0
      vertex -7 22 38
      vertex -7 22 0
    endloop
  endfacet
  facet normal -1 -0 0
    outer loop
      vertex -7 22 38
      vertex -7 0 0
      vertex -7 0 38
    endloop
  endfacet
  facet normal 0 0 1
    outer loop
      vertex 0 22 38
      vertex -7 22 38
      vertex 0 7 38
    endloop
  endfacet
  facet normal 0 0 1
    outer loop
      vertex 91 7 38
      vertex 26.5 4 38
      vertex 64.5 4 38
    endloop
  endfacet
  facet normal -0 0 1
    outer loop
      vertex 0 7 38
      vertex 26.5 4 38
      vertex 91 7 38
    endloop
  endfacet
  facet normal 0 0 1
    outer loop
      vertex 0 7 38
      vertex 26.5 0 38
      vertex 26.5 4 38
    endloop
  endfacet
  facet normal 0 0 1
    outer loop
      vertex 0 7 38
      vertex -7 0 38
      vertex 26.5 0 38
    endloop
  endfacet
  facet normal 0 0 1
    outer loop
      vertex -7 0 38
      vertex 0 7 38
      vertex -7 22 38
    endloop
  endfacet
  facet normal 0 0 1
    outer loop
      vertex 91 7 38
      vertex 98 22 38
      vertex 91 22 38
    endloop
  endfacet
  facet normal 0 0 1
    outer loop
      vertex 98 22 38
      vertex 91 7 38
      vertex 98 0 38
    endloop
  endfacet
  facet normal 0 0 1
    outer loop
      vertex 64.5 0 38
      vertex 91 7 38
      vertex 64.5 4 38
    endloop
  endfacet
  facet normal 0 0 1
    outer loop
      vertex 91 7 38
      vertex 64.5 0 38
      vertex 98 0 38
    endloop
  endfacet
  facet normal 1 -0 0
    outer loop
      vertex 0 7 38
      vertex 0 22 0
      vertex 0 22 38
    endloop
  endfacet
  facet normal 1 0 0
    outer loop
      vertex 0 22 0
      vertex 0 7 38
      vertex 0 7 0
    endloop
  endfacet
  facet normal 0 1 -0
    outer loop
      vertex 0 22 0
      vertex -7 22 38
      vertex 0 22 38
    endloop
  endfacet
  facet normal 0 1 0
    outer loop
      vertex -7 22 38
      vertex 0 22 0
      vertex -7 22 0
    endloop
  endfacet
  facet normal 0 0 -1
    outer loop
      vertex 26.5 0 0
      vertex 0 7 0
      vertex 26.5 4 0
    endloop
  endfacet
  facet normal 0 0 -1
    outer loop
      vertex -7 0 0
      vertex 0 7 0
      vertex 26.5 0 0
    endloop
  endfacet
  facet normal 0 0 -1
    outer loop
      vertex -7 22 0
      vertex 0 7 0
      vertex -7 0 0
    endloop
  endfacet
  facet normal 0 0 -1
    outer loop
      vertex 0 7 0
      vertex -7 22 0
      vertex 0 22 0
    endloop
  endfacet
  facet normal 0 0 -1
    outer loop
      vertex 98 0 0
      vertex 91 7 0
      vertex 98 22 0
    endloop
  endfacet
  facet normal 0 0 -1
    outer loop
      vertex 64.5 0 0
      vertex 91 7 0
      vertex 98 0 0
    endloop
  endfacet
  facet normal 0 0 -1
    outer loop
      vertex 64.5 4 0
      vertex 91 7 0
      vertex 64.5 0 0
    endloop
  endfacet
  facet normal 0 0 -1
    outer loop
      vertex 26.5 4 0
      vertex 91 7 0
      vertex 64.5 4 0
    endloop
  endfacet
  facet normal -0 0 -1
    outer loop
      vertex 91 7 0
      vertex 26.5 4 0
      vertex 0 7 0
    endloop
  endfacet
  facet normal -0 0 -1
    outer loop
      vertex 98 22 0
      vertex 91 7 0
      vertex 91 22 0
    endloop
  endfacet
  facet normal 0 -1 0
    outer loop
      vertex 64.5 0 0
      vertex 98 0 38
      vertex 64.5 0 38
    endloop
  endfacet
  facet normal 0 -1 -0
    outer loop
      vertex 98 0 38
      vertex 64.5 0 0
      vertex 98 0 0
    endloop
  endfacet
  facet normal 0 -1 0
    outer loop
      vertex -7 0 0
      vertex 26.5 0 38
      vertex -7 0 38
    endloop
  endfacet
  facet normal 0 -1 -0
    outer loop
      vertex 26.5 0 38
      vertex -7 0 0
      vertex 26.5 0 0
    endloop
  endfacet
  facet normal -1 0 0
    outer loop
      vertex 91 7 0
      vertex 91 22 38
      vertex 91 22 0
    endloop
  endfacet
  facet normal -1 -0 0
    outer loop
      vertex 91 22 38
      vertex 91 7 0
      vertex 91 7 38
    endloop
  endfacet
  facet normal 0 1 -0
    outer loop
      vertex 91 7 0
      vertex 0 7 38
      vertex 91 7 38
    endloop
  endfacet
  facet normal 0 1 0
    outer loop
      vertex 0 7 38
      vertex 91 7 0
      vertex 0 7 0
    endloop
  endfacet
  facet normal 1 -0 0
    outer loop
      vertex 98 0 38
      vertex 98 22 0
      vertex 98 22 38
    endloop
  endfacet
  facet normal 1 0 0
    outer loop
      vertex 98 22 0
      vertex 98 0 38
      vertex 98 0 0
    endloop
  endfacet
  facet normal 0 1 -0
    outer loop
      vertex 98 22 0
      vertex 91 22 38
      vertex 98 22 38
    endloop
  endfacet
  facet normal 0 1 0
    outer loop
      vertex 91 22 38
      vertex 98 22 0
      vertex 91 22 0
    endloop
  endfacet
  facet normal 1 -0 0
    outer loop
      vertex 26.5 0 38
      vertex 26.5 4 0
      vertex 26.5 4 38
    endloop
  endfacet
  facet normal 1 0 0
    outer loop
      vertex 26.5 4 0
      vertex 26.5 0 38
      vertex 26.5 0 0
    endloop
  endfacet
  facet normal -1 0 0
    outer loop
      vertex 64.5 0 0
      vertex 64.5 4 38
      vertex 64.5 4 0
    endloop
  endfacet
  facet normal -1 -0 0
    outer loop
      vertex 64.5 4 38
      vertex 64.5 0 0
      vertex 64.5 0 38
    endloop
  endfacet
  facet normal 0 -1 0
    outer loop
      vertex 26.5 4 0
      vertex 64.5 4 38
      vertex 26.5 4 38
    endloop
  endfacet
  facet normal 0 -1 -0
    outer loop
      vertex 64.5 4 38
      vertex 26.5 4 0
      vertex 64.5 4 0
    endloop
  endfacet
endsolid OpenSCAD_Model
