solid Sunglass Accent
facet normal 0.0 0.0 -1.0
  outer loop
    vertex 0.10092383358953928 4.1 0.0
    vertex 0.0 0.17960253622577219 0.0
    vertex 0.0 3.99907616641046 0.0
  endloop
endfacet
facet normal 0.0 0.0 -1.0
  outer loop
    vertex 0.0 0.17960253622577219 0.0
    vertex 0.10092383358953928 4.1 0.0
    vertex 0.1807965336792405 0.0 0.0
  endloop
endfacet
facet normal 0.0 0.0 -1.0
  outer loop
    vertex 0.1807965336792405 0.0 0.0
    vertex 0.10092383358953928 4.1 0.0
    vertex 15.787996199981453 4.1 0.0
  endloop
endfacet
facet normal 0.0 0.0 -1.0
  outer loop
    vertex 0.1807965336792405 0.0 0.0
    vertex 15.787996199981453 4.1 0.0
    vertex 15.739927422328558 0.0 0.0
  endloop
endfacet
facet normal 0.0 0.0 -1.0
  outer loop
    vertex 15.739927422328558 0.0 0.0
    vertex 15.787996199981453 4.1 0.0
    vertex 15.899999999999999 0.16007257767144115 0.0
  endloop
endfacet
facet normal 0.0 0.0 -1.0
  outer loop
    vertex 15.899999999999999 0.16007257767144115 0.0
    vertex 15.787996199981453 4.1 0.0
    vertex 15.899999999999999 3.987996199981453 0.0
  endloop
endfacet
facet normal -1.0 0.0 0.0
  outer loop
    vertex 0.0 3.99907616641046 0.8999999999999999
    vertex 0.0 0.17960253622577219 0.0
    vertex 0.0 0.17960253622577219 0.8999999999999999
  endloop
endfacet
facet normal -1.0 0.0 0.0
  outer loop
    vertex 0.0 0.17960253622577219 0.0
    vertex 0.0 3.99907616641046 0.8999999999999999
    vertex 0.0 3.99907616641046 0.0
  endloop
endfacet
facet normal 1.0 0.0 0.0
  outer loop
    vertex 15.899999999999999 3.987996199981453 0.0
    vertex 15.899999999999999 0.16007257767144115 0.8999999999999999
    vertex 15.899999999999999 0.16007257767144115 0.0
  endloop
endfacet
facet normal 1.0 0.0 0.0
  outer loop
    vertex 15.899999999999999 0.16007257767144115 0.8999999999999999
    vertex 15.899999999999999 3.987996199981453 0.0
    vertex 15.899999999999999 3.987996199981453 0.8999999999999999
  endloop
endfacet
facet normal -0.0 -0.0 1.0
  outer loop
    vertex 0.1807965336792405 0.0 0.8999999999999999
    vertex 6.304074173710931 1.7911809548974789 0.8999999999999999
    vertex 6.269999999999999 2.05 0.8999999999999999
  endloop
endfacet
facet normal -0.0 -0.0 1.0
  outer loop
    vertex 6.304074173710931 1.7911809548974789 0.8999999999999999
    vertex 0.1807965336792405 0.0 0.8999999999999999
    vertex 6.403974596215559 1.5499999999999998 0.8999999999999999
  endloop
endfacet
facet normal -0.0 -0.0 1.0
  outer loop
    vertex 6.403974596215559 1.5499999999999998 0.8999999999999999
    vertex 0.1807965336792405 0.0 0.8999999999999999
    vertex 6.562893218813451 1.3428932188134521 0.8999999999999999
  endloop
endfacet
facet normal -0.0 -0.0 1.0
  outer loop
    vertex 6.562893218813451 1.3428932188134521 0.8999999999999999
    vertex 0.1807965336792405 0.0 0.8999999999999999
    vertex 6.77 1.1839745962155612 0.8999999999999999
  endloop
endfacet
facet normal -0.0 -0.0 1.0
  outer loop
    vertex 6.77 1.1839745962155612 0.8999999999999999
    vertex 0.1807965336792405 0.0 0.8999999999999999
    vertex 7.011180954897477 1.0840741737109318 0.8999999999999999
  endloop
endfacet
facet normal -0.0 -0.0 1.0
  outer loop
    vertex 7.011180954897477 1.0840741737109318 0.8999999999999999
    vertex 0.1807965336792405 0.0 0.8999999999999999
    vertex 7.269999999999999 1.05 0.8999999999999999
  endloop
endfacet
facet normal -0.0 -0.0 1.0
  outer loop
    vertex 7.269999999999999 1.05 0.8999999999999999
    vertex 0.1807965336792405 0.0 0.8999999999999999
    vertex 15.739927422328558 0.0 0.8999999999999999
  endloop
endfacet
facet normal -0.0 -0.0 1.0
  outer loop
    vertex 7.269999999999999 1.05 0.8999999999999999
    vertex 15.739927422328558 0.0 0.8999999999999999
    vertex 7.52881904510252 1.0840741737109318 0.8999999999999999
  endloop
endfacet
facet normal -0.0 -0.0 1.0
  outer loop
    vertex 7.52881904510252 1.0840741737109318 0.8999999999999999
    vertex 15.739927422328558 0.0 0.8999999999999999
    vertex 7.769999999999999 1.1839745962155617 0.8999999999999999
  endloop
endfacet
facet normal -0.0 -0.0 1.0
  outer loop
    vertex 7.769999999999999 1.1839745962155617 0.8999999999999999
    vertex 15.739927422328558 0.0 0.8999999999999999
    vertex 7.977106781186547 1.3428932188134526 0.8999999999999999
  endloop
endfacet
facet normal -0.0 -0.0 1.0
  outer loop
    vertex 7.977106781186547 1.3428932188134526 0.8999999999999999
    vertex 15.739927422328558 0.0 0.8999999999999999
    vertex 8.136025403784437 1.5500000000000007 0.8999999999999999
  endloop
endfacet
facet normal -0.0 -0.0 1.0
  outer loop
    vertex 8.136025403784437 1.5500000000000007 0.8999999999999999
    vertex 15.739927422328558 0.0 0.8999999999999999
    vertex 8.235925826289066 1.7911809548974795 0.8999999999999999
  endloop
endfacet
facet normal -0.0 -0.0 1.0
  outer loop
    vertex 8.235925826289066 1.7911809548974795 0.8999999999999999
    vertex 15.739927422328558 0.0 0.8999999999999999
    vertex 8.269999999999998 2.0500000000000003 0.8999999999999999
  endloop
endfacet
facet normal -0.0 -0.0 1.0
  outer loop
    vertex 8.269999999999998 2.0500000000000003 0.8999999999999999
    vertex 15.739927422328558 0.0 0.8999999999999999
    vertex 12.341180954897478 1.0840741737109318 0.8999999999999999
  endloop
endfacet
facet normal -0.0 -0.0 1.0
  outer loop
    vertex 8.269999999999998 2.0500000000000003 0.8999999999999999
    vertex 12.341180954897478 1.0840741737109318 0.8999999999999999
    vertex 12.1 1.1839745962155612 0.8999999999999999
  endloop
endfacet
facet normal -0.0 -0.0 1.0
  outer loop
    vertex 8.269999999999998 2.0500000000000003 0.8999999999999999
    vertex 12.1 1.1839745962155612 0.8999999999999999
    vertex 11.892893218813452 1.3428932188134521 0.8999999999999999
  endloop
endfacet
facet normal -0.0 -0.0 1.0
  outer loop
    vertex 8.269999999999998 2.0500000000000003 0.8999999999999999
    vertex 11.892893218813452 1.3428932188134521 0.8999999999999999
    vertex 11.73397459621556 1.5499999999999998 0.8999999999999999
  endloop
endfacet
facet normal -0.0 -0.0 1.0
  outer loop
    vertex 8.269999999999998 2.0500000000000003 0.8999999999999999
    vertex 11.73397459621556 1.5499999999999998 0.8999999999999999
    vertex 11.634074173710932 1.7911809548974789 0.8999999999999999
  endloop
endfacet
facet normal -0.0 -0.0 1.0
  outer loop
    vertex 8.269999999999998 2.0500000000000003 0.8999999999999999
    vertex 11.634074173710932 1.7911809548974789 0.8999999999999999
    vertex 11.6 2.05 0.8999999999999999
  endloop
endfacet
facet normal -0.0 -0.0 1.0
  outer loop
    vertex 12.341180954897478 1.0840741737109318 0.8999999999999999
    vertex 15.739927422328558 0.0 0.8999999999999999
    vertex 12.6 1.05 0.8999999999999999
  endloop
endfacet
facet normal -0.0 -0.0 1.0
  outer loop
    vertex 12.6 1.05 0.8999999999999999
    vertex 15.739927422328558 0.0 0.8999999999999999
    vertex 12.858819045102523 1.0840741737109318 0.8999999999999999
  endloop
endfacet
facet normal -0.0 -0.0 1.0
  outer loop
    vertex 12.858819045102523 1.0840741737109318 0.8999999999999999
    vertex 15.739927422328558 0.0 0.8999999999999999
    vertex 13.099999999999998 1.1839745962155617 0.8999999999999999
  endloop
endfacet
facet normal -0.0 -0.0 1.0
  outer loop
    vertex 13.099999999999998 1.1839745962155617 0.8999999999999999
    vertex 15.739927422328558 0.0 0.8999999999999999
    vertex 13.307106781186546 1.3428932188134524 0.8999999999999999
  endloop
endfacet
facet normal -0.0 -0.0 1.0
  outer loop
    vertex 13.307106781186546 1.3428932188134524 0.8999999999999999
    vertex 15.739927422328558 0.0 0.8999999999999999
    vertex 13.466025403784439 1.5500000000000007 0.8999999999999999
  endloop
endfacet
facet normal -0.0 -0.0 1.0
  outer loop
    vertex 13.466025403784439 1.5500000000000007 0.8999999999999999
    vertex 15.739927422328558 0.0 0.8999999999999999
    vertex 13.56592582628907 1.7911809548974795 0.8999999999999999
  endloop
endfacet
facet normal -0.0 -0.0 1.0
  outer loop
    vertex 13.56592582628907 1.7911809548974795 0.8999999999999999
    vertex 15.739927422328558 0.0 0.8999999999999999
    vertex 13.6 2.0500000000000003 0.8999999999999999
  endloop
endfacet
facet normal -0.0 -0.0 1.0
  outer loop
    vertex 0.1807965336792405 0.0 0.8999999999999999
    vertex 0.0 3.99907616641046 0.8999999999999999
    vertex 0.0 0.17960253622577219 0.8999999999999999
  endloop
endfacet
facet normal -0.0 -0.0 1.0
  outer loop
    vertex 0.0 3.99907616641046 0.8999999999999999
    vertex 0.1807965336792405 0.0 0.8999999999999999
    vertex 0.10092383358953928 4.1 0.8999999999999999
  endloop
endfacet
facet normal -0.0 -0.0 1.0
  outer loop
    vertex 0.10092383358953928 4.1 0.8999999999999999
    vertex 0.1807965336792405 0.0 0.8999999999999999
    vertex 6.769999999999998 2.916025403784438 0.8999999999999999
  endloop
endfacet
facet normal -0.0 -0.0 1.0
  outer loop
    vertex 0.10092383358953928 4.1 0.8999999999999999
    vertex 6.769999999999998 2.916025403784438 0.8999999999999999
    vertex 7.011180954897477 3.0159258262890676 0.8999999999999999
  endloop
endfacet
facet normal -0.0 -0.0 1.0
  outer loop
    vertex 0.10092383358953928 4.1 0.8999999999999999
    vertex 7.011180954897477 3.0159258262890676 0.8999999999999999
    vertex 7.269999999999999 3.0499999999999994 0.8999999999999999
  endloop
endfacet
facet normal -0.0 -0.0 1.0
  outer loop
    vertex 0.10092383358953928 4.1 0.8999999999999999
    vertex 7.269999999999999 3.0499999999999994 0.8999999999999999
    vertex 15.787996199981453 4.1 0.8999999999999999
  endloop
endfacet
facet normal -0.0 -0.0 1.0
  outer loop
    vertex 6.769999999999998 2.916025403784438 0.8999999999999999
    vertex 0.1807965336792405 0.0 0.8999999999999999
    vertex 6.562893218813451 2.757106781186547 0.8999999999999999
  endloop
endfacet
facet normal -0.0 -0.0 1.0
  outer loop
    vertex 6.562893218813451 2.757106781186547 0.8999999999999999
    vertex 0.1807965336792405 0.0 0.8999999999999999
    vertex 6.403974596215559 2.5499999999999994 0.8999999999999999
  endloop
endfacet
facet normal -0.0 -0.0 1.0
  outer loop
    vertex 6.403974596215559 2.5499999999999994 0.8999999999999999
    vertex 0.1807965336792405 0.0 0.8999999999999999
    vertex 6.304074173710931 2.3088190451025206 0.8999999999999999
  endloop
endfacet
facet normal -0.0 -0.0 1.0
  outer loop
    vertex 6.304074173710931 2.3088190451025206 0.8999999999999999
    vertex 0.1807965336792405 0.0 0.8999999999999999
    vertex 6.269999999999999 2.05 0.8999999999999999
  endloop
endfacet
facet normal -0.0 -0.0 1.0
  outer loop
    vertex 15.787996199981453 4.1 0.8999999999999999
    vertex 7.269999999999999 3.0499999999999994 0.8999999999999999
    vertex 7.5288190451025185 3.015925826289068 0.8999999999999999
  endloop
endfacet
facet normal -0.0 -0.0 1.0
  outer loop
    vertex 15.787996199981453 4.1 0.8999999999999999
    vertex 7.5288190451025185 3.015925826289068 0.8999999999999999
    vertex 7.769999999999998 2.916025403784438 0.8999999999999999
  endloop
endfacet
facet normal -0.0 -0.0 1.0
  outer loop
    vertex 15.787996199981453 4.1 0.8999999999999999
    vertex 7.769999999999998 2.916025403784438 0.8999999999999999
    vertex 7.977106781186545 2.7571067811865477 0.8999999999999999
  endloop
endfacet
facet normal -0.0 -0.0 1.0
  outer loop
    vertex 15.787996199981453 4.1 0.8999999999999999
    vertex 7.977106781186545 2.7571067811865477 0.8999999999999999
    vertex 8.136025403784437 2.5500000000000003 0.8999999999999999
  endloop
endfacet
facet normal -0.0 -0.0 1.0
  outer loop
    vertex 15.787996199981453 4.1 0.8999999999999999
    vertex 8.136025403784437 2.5500000000000003 0.8999999999999999
    vertex 8.235925826289066 2.308819045102521 0.8999999999999999
  endloop
endfacet
facet normal -0.0 -0.0 1.0
  outer loop
    vertex 15.787996199981453 4.1 0.8999999999999999
    vertex 8.235925826289066 2.308819045102521 0.8999999999999999
    vertex 8.269999999999998 2.0500000000000003 0.8999999999999999
  endloop
endfacet
facet normal -0.0 -0.0 1.0
  outer loop
    vertex 15.787996199981453 4.1 0.8999999999999999
    vertex 8.269999999999998 2.0500000000000003 0.8999999999999999
    vertex 12.341180954897478 3.0159258262890676 0.8999999999999999
  endloop
endfacet
facet normal -0.0 -0.0 1.0
  outer loop
    vertex 12.341180954897478 3.0159258262890676 0.8999999999999999
    vertex 8.269999999999998 2.0500000000000003 0.8999999999999999
    vertex 12.1 2.916025403784438 0.8999999999999999
  endloop
endfacet
facet normal -0.0 -0.0 1.0
  outer loop
    vertex 12.1 2.916025403784438 0.8999999999999999
    vertex 8.269999999999998 2.0500000000000003 0.8999999999999999
    vertex 11.892893218813452 2.757106781186547 0.8999999999999999
  endloop
endfacet
facet normal -0.0 -0.0 1.0
  outer loop
    vertex 11.892893218813452 2.757106781186547 0.8999999999999999
    vertex 8.269999999999998 2.0500000000000003 0.8999999999999999
    vertex 11.73397459621556 2.5499999999999994 0.8999999999999999
  endloop
endfacet
facet normal -0.0 -0.0 1.0
  outer loop
    vertex 11.73397459621556 2.5499999999999994 0.8999999999999999
    vertex 8.269999999999998 2.0500000000000003 0.8999999999999999
    vertex 11.634074173710932 2.3088190451025206 0.8999999999999999
  endloop
endfacet
facet normal -0.0 -0.0 1.0
  outer loop
    vertex 11.634074173710932 2.3088190451025206 0.8999999999999999
    vertex 8.269999999999998 2.0500000000000003 0.8999999999999999
    vertex 11.6 2.05 0.8999999999999999
  endloop
endfacet
facet normal -0.0 -0.0 1.0
  outer loop
    vertex 15.787996199981453 4.1 0.8999999999999999
    vertex 12.341180954897478 3.0159258262890676 0.8999999999999999
    vertex 12.6 3.0499999999999994 0.8999999999999999
  endloop
endfacet
facet normal -0.0 -0.0 1.0
  outer loop
    vertex 15.787996199981453 4.1 0.8999999999999999
    vertex 12.6 3.0499999999999994 0.8999999999999999
    vertex 12.85881904510252 3.015925826289068 0.8999999999999999
  endloop
endfacet
facet normal -0.0 -0.0 1.0
  outer loop
    vertex 15.787996199981453 4.1 0.8999999999999999
    vertex 12.85881904510252 3.015925826289068 0.8999999999999999
    vertex 13.099999999999998 2.916025403784438 0.8999999999999999
  endloop
endfacet
facet normal -0.0 -0.0 1.0
  outer loop
    vertex 15.787996199981453 4.1 0.8999999999999999
    vertex 13.099999999999998 2.916025403784438 0.8999999999999999
    vertex 13.307106781186546 2.7571067811865477 0.8999999999999999
  endloop
endfacet
facet normal -0.0 -0.0 1.0
  outer loop
    vertex 15.787996199981453 4.1 0.8999999999999999
    vertex 13.307106781186546 2.7571067811865477 0.8999999999999999
    vertex 13.466025403784439 2.5500000000000003 0.8999999999999999
  endloop
endfacet
facet normal -0.0 -0.0 1.0
  outer loop
    vertex 15.787996199981453 4.1 0.8999999999999999
    vertex 13.466025403784439 2.5500000000000003 0.8999999999999999
    vertex 13.56592582628907 2.308819045102521 0.8999999999999999
  endloop
endfacet
facet normal -0.0 -0.0 1.0
  outer loop
    vertex 15.787996199981453 4.1 0.8999999999999999
    vertex 13.56592582628907 2.308819045102521 0.8999999999999999
    vertex 13.6 2.0500000000000003 0.8999999999999999
  endloop
endfacet
facet normal -0.0 -0.0 1.0
  outer loop
    vertex 15.787996199981453 4.1 0.8999999999999999
    vertex 13.6 2.0500000000000003 0.8999999999999999
    vertex 15.739927422328558 0.0 0.8999999999999999
  endloop
endfacet
facet normal -0.0 -0.0 1.0
  outer loop
    vertex 15.787996199981453 4.1 0.8999999999999999
    vertex 15.739927422328558 0.0 0.8999999999999999
    vertex 15.899999999999999 0.16007257767144115 0.8999999999999999
  endloop
endfacet
facet normal -0.0 -0.0 1.0
  outer loop
    vertex 15.787996199981453 4.1 0.8999999999999999
    vertex 15.899999999999999 0.16007257767144115 0.8999999999999999
    vertex 15.899999999999999 3.987996199981453 0.8999999999999999
  endloop
endfacet
facet normal -0.0 1.0 0.0
  outer loop
    vertex 0.10092383358953928 4.1 0.8999999999999999
    vertex 15.787996199981453 4.1 0.0
    vertex 0.10092383358953928 4.1 0.0
  endloop
endfacet
facet normal -0.0 1.0 0.0
  outer loop
    vertex 15.787996199981453 4.1 0.0
    vertex 0.10092383358953928 4.1 0.8999999999999999
    vertex 15.787996199981453 4.1 0.8999999999999999
  endloop
endfacet
facet normal -0.0 -1.0 -0.0
  outer loop
    vertex 15.739927422328558 0.0 0.8999999999999999
    vertex 0.1807965336792405 0.0 0.0
    vertex 15.739927422328558 0.0 0.0
  endloop
endfacet
facet normal -0.0 -1.0 -0.0
  outer loop
    vertex 0.1807965336792405 0.0 0.0
    vertex 15.739927422328558 0.0 0.8999999999999999
    vertex 0.1807965336792405 0.0 0.8999999999999999
  endloop
endfacet
facet normal 0.7071067811865471 -0.7071067811865478 0.0
  outer loop
    vertex 15.899999999999999 0.16007257767144115 0.8999999999999999
    vertex 15.739927422328558 0.0 0.0
    vertex 15.899999999999999 0.16007257767144115 0.0
  endloop
endfacet
facet normal 0.7071067811865471 -0.7071067811865478 0.0
  outer loop
    vertex 15.739927422328558 0.0 0.0
    vertex 15.899999999999999 0.16007257767144115 0.8999999999999999
    vertex 15.739927422328558 0.0 0.8999999999999999
  endloop
endfacet
facet normal 0.7071067811865475 0.7071067811865475 -0.0
  outer loop
    vertex 15.787996199981453 4.1 0.0
    vertex 15.899999999999999 3.987996199981453 0.8999999999999999
    vertex 15.899999999999999 3.987996199981453 0.0
  endloop
endfacet
facet normal 0.7071067811865475 0.7071067811865475 -0.0
  outer loop
    vertex 15.899999999999999 3.987996199981453 0.8999999999999999
    vertex 15.787996199981453 4.1 0.0
    vertex 15.787996199981453 4.1 0.8999999999999999
  endloop
endfacet
facet normal -0.7071067811865475 0.7071067811865475 -0.0
  outer loop
    vertex 0.10092383358953928 4.1 0.8999999999999999
    vertex 0.0 3.99907616641046 0.0
    vertex 0.0 3.99907616641046 0.8999999999999999
  endloop
endfacet
facet normal -0.7071067811865475 0.7071067811865475 -0.0
  outer loop
    vertex 0.0 3.99907616641046 0.0
    vertex 0.10092383358953928 4.1 0.8999999999999999
    vertex 0.10092383358953928 4.1 0.0
  endloop
endfacet
facet normal -0.7047602779008596 -0.7094455234146616 0.0
  outer loop
    vertex 0.1807965336792405 0.0 0.8999999999999999
    vertex 0.0 0.17960253622577219 0.0
    vertex 0.1807965336792405 0.0 0.0
  endloop
endfacet
facet normal -0.7047602779008596 -0.7094455234146616 0.0
  outer loop
    vertex 0.0 0.17960253622577219 0.0
    vertex 0.1807965336792405 0.0 0.8999999999999999
    vertex 0.0 0.17960253622577219 0.8999999999999999
  endloop
endfacet
facet normal 0.0 0.0 1.0
  outer loop
    vertex 6.304074173710931 1.7911809548974789 2.4
    vertex 6.304074173710931 2.3088190451025206 2.4
    vertex 6.269999999999999 2.05 2.4
  endloop
endfacet
facet normal 0.0 0.0 1.0
  outer loop
    vertex 6.304074173710931 2.3088190451025206 2.4
    vertex 6.304074173710931 1.7911809548974789 2.4
    vertex 6.403974596215559 1.5499999999999998 2.4
  endloop
endfacet
facet normal 0.0 0.0 1.0
  outer loop
    vertex 6.304074173710931 2.3088190451025206 2.4
    vertex 6.403974596215559 1.5499999999999998 2.4
    vertex 6.403974596215559 2.5499999999999994 2.4
  endloop
endfacet
facet normal 0.0 0.0 1.0
  outer loop
    vertex 6.403974596215559 2.5499999999999994 2.4
    vertex 6.403974596215559 1.5499999999999998 2.4
    vertex 6.562893218813451 1.3428932188134521 2.4
  endloop
endfacet
facet normal 0.0 0.0 1.0
  outer loop
    vertex 6.403974596215559 2.5499999999999994 2.4
    vertex 6.562893218813451 1.3428932188134521 2.4
    vertex 6.562893218813451 2.757106781186547 2.4
  endloop
endfacet
facet normal 0.0 0.0 1.0
  outer loop
    vertex 6.562893218813451 2.757106781186547 2.4
    vertex 6.562893218813451 1.3428932188134521 2.4
    vertex 6.77 1.1839745962155612 2.4
  endloop
endfacet
facet normal 0.0 0.0 1.0
  outer loop
    vertex 6.562893218813451 2.757106781186547 2.4
    vertex 6.77 1.1839745962155612 2.4
    vertex 6.769999999999998 2.916025403784438 2.4
  endloop
endfacet
facet normal 0.0 0.0 1.0
  outer loop
    vertex 6.769999999999998 2.916025403784438 2.4
    vertex 6.77 1.1839745962155612 2.4
    vertex 7.011180954897477 3.0159258262890676 2.4
  endloop
endfacet
facet normal 0.0 0.0 1.0
  outer loop
    vertex 7.011180954897477 3.0159258262890676 2.4
    vertex 6.77 1.1839745962155612 2.4
    vertex 7.011180954897477 1.0840741737109318 2.4
  endloop
endfacet
facet normal 0.0 0.0 1.0
  outer loop
    vertex 7.011180954897477 3.0159258262890676 2.4
    vertex 7.011180954897477 1.0840741737109318 2.4
    vertex 7.269999999999999 1.05 2.4
  endloop
endfacet
facet normal 0.0 0.0 1.0
  outer loop
    vertex 7.011180954897477 3.0159258262890676 2.4
    vertex 7.269999999999999 1.05 2.4
    vertex 7.269999999999999 3.0499999999999994 2.4
  endloop
endfacet
facet normal 0.0 0.0 1.0
  outer loop
    vertex 7.269999999999999 3.0499999999999994 2.4
    vertex 7.269999999999999 1.05 2.4
    vertex 7.52881904510252 1.0840741737109318 2.4
  endloop
endfacet
facet normal 0.0 0.0 1.0
  outer loop
    vertex 7.269999999999999 3.0499999999999994 2.4
    vertex 7.52881904510252 1.0840741737109318 2.4
    vertex 7.5288190451025185 3.015925826289068 2.4
  endloop
endfacet
facet normal 0.0 0.0 1.0
  outer loop
    vertex 7.5288190451025185 3.015925826289068 2.4
    vertex 7.52881904510252 1.0840741737109318 2.4
    vertex 7.769999999999998 2.916025403784438 2.4
  endloop
endfacet
facet normal 0.0 0.0 1.0
  outer loop
    vertex 7.769999999999998 2.916025403784438 2.4
    vertex 7.52881904510252 1.0840741737109318 2.4
    vertex 7.769999999999999 1.1839745962155617 2.4
  endloop
endfacet
facet normal 0.0 0.0 1.0
  outer loop
    vertex 7.769999999999998 2.916025403784438 2.4
    vertex 7.769999999999999 1.1839745962155617 2.4
    vertex 7.977106781186545 2.7571067811865477 2.4
  endloop
endfacet
facet normal 0.0 0.0 1.0
  outer loop
    vertex 7.977106781186545 2.7571067811865477 2.4
    vertex 7.769999999999999 1.1839745962155617 2.4
    vertex 7.977106781186547 1.3428932188134526 2.4
  endloop
endfacet
facet normal 0.0 0.0 1.0
  outer loop
    vertex 7.977106781186545 2.7571067811865477 2.4
    vertex 7.977106781186547 1.3428932188134526 2.4
    vertex 8.136025403784437 2.5500000000000003 2.4
  endloop
endfacet
facet normal 0.0 0.0 1.0
  outer loop
    vertex 8.136025403784437 2.5500000000000003 2.4
    vertex 7.977106781186547 1.3428932188134526 2.4
    vertex 8.136025403784437 1.5500000000000007 2.4
  endloop
endfacet
facet normal 0.0 0.0 1.0
  outer loop
    vertex 8.136025403784437 2.5500000000000003 2.4
    vertex 8.136025403784437 1.5500000000000007 2.4
    vertex 8.235925826289066 2.308819045102521 2.4
  endloop
endfacet
facet normal 0.0 0.0 1.0
  outer loop
    vertex 8.235925826289066 2.308819045102521 2.4
    vertex 8.136025403784437 1.5500000000000007 2.4
    vertex 8.235925826289066 1.7911809548974795 2.4
  endloop
endfacet
facet normal 0.0 0.0 1.0
  outer loop
    vertex 8.235925826289066 2.308819045102521 2.4
    vertex 8.235925826289066 1.7911809548974795 2.4
    vertex 8.269999999999998 2.0500000000000003 2.4
  endloop
endfacet
facet normal 0.9659258262890681 0.25881904510252157 0.0
  outer loop
    vertex 8.235925826289066 2.308819045102521 0.8999999999999999
    vertex 8.269999999999998 2.0500000000000003 2.4
    vertex 8.269999999999998 2.0500000000000003 0.8999999999999999
  endloop
endfacet
facet normal 1.0 -8.019998906082215e-17 0.0
  outer loop
    vertex 8.269999999999998 2.0500000000000003 2.4
    vertex 8.235925826289066 2.308819045102521 0.8999999999999999
    vertex 8.235925826289066 2.308819045102521 2.4
  endloop
endfacet
facet normal 0.8660254037844379 0.500000000000001 0.0
  outer loop
    vertex 8.136025403784437 2.5500000000000003 0.8999999999999999
    vertex 8.235925826289066 2.308819045102521 2.4
    vertex 8.235925826289066 2.308819045102521 0.8999999999999999
  endloop
endfacet
facet normal 0.9659258262890681 0.25881904510252157 0.0
  outer loop
    vertex 8.235925826289066 2.308819045102521 2.4
    vertex 8.136025403784437 2.5500000000000003 0.8999999999999999
    vertex 8.136025403784437 2.5500000000000003 2.4
  endloop
endfacet
facet normal 0.7071067811865468 0.7071067811865482 0.0
  outer loop
    vertex 7.977106781186545 2.7571067811865477 0.8999999999999999
    vertex 8.136025403784437 2.5500000000000003 2.4
    vertex 8.136025403784437 2.5500000000000003 0.8999999999999999
  endloop
endfacet
facet normal 0.8660254037844379 0.500000000000001 0.0
  outer loop
    vertex 8.136025403784437 2.5500000000000003 2.4
    vertex 7.977106781186545 2.7571067811865477 0.8999999999999999
    vertex 7.977106781186545 2.7571067811865477 2.4
  endloop
endfacet
facet normal 0.4999999999999997 0.8660254037844389 0.0
  outer loop
    vertex 7.769999999999998 2.916025403784438 2.4
    vertex 7.977106781186545 2.7571067811865477 0.8999999999999999
    vertex 7.769999999999998 2.916025403784438 0.8999999999999999
  endloop
endfacet
facet normal 0.7071067811865468 0.7071067811865482 0.0
  outer loop
    vertex 7.977106781186545 2.7571067811865477 0.8999999999999999
    vertex 7.769999999999998 2.916025403784438 2.4
    vertex 7.977106781186545 2.7571067811865477 2.4
  endloop
endfacet
facet normal 0.2588190451025206 0.9659258262890684 0.0
  outer loop
    vertex 7.5288190451025185 3.015925826289068 2.4
    vertex 7.769999999999998 2.916025403784438 0.8999999999999999
    vertex 7.5288190451025185 3.015925826289068 0.8999999999999999
  endloop
endfacet
facet normal 0.4999999999999997 0.8660254037844389 0.0
  outer loop
    vertex 7.769999999999998 2.916025403784438 0.8999999999999999
    vertex 7.5288190451025185 3.015925826289068 2.4
    vertex 7.769999999999998 2.916025403784438 2.4
  endloop
endfacet
facet normal -3.1188884634764164e-16 1.0 0.0
  outer loop
    vertex 7.269999999999999 3.0499999999999994 2.4
    vertex 7.5288190451025185 3.015925826289068 0.8999999999999999
    vertex 7.269999999999999 3.0499999999999994 0.8999999999999999
  endloop
endfacet
facet normal 0.2588190451025206 0.9659258262890684 0.0
  outer loop
    vertex 7.5288190451025185 3.015925826289068 0.8999999999999999
    vertex 7.269999999999999 3.0499999999999994 2.4
    vertex 7.5288190451025185 3.015925826289068 2.4
  endloop
endfacet
facet normal -0.2588190451025203 0.9659258262890684 0.0
  outer loop
    vertex 7.011180954897477 3.0159258262890676 2.4
    vertex 7.269999999999999 3.0499999999999994 0.8999999999999999
    vertex 7.011180954897477 3.0159258262890676 0.8999999999999999
  endloop
endfacet
facet normal -3.1188884634764164e-16 1.0 0.0
  outer loop
    vertex 7.269999999999999 3.0499999999999994 0.8999999999999999
    vertex 7.011180954897477 3.0159258262890676 2.4
    vertex 7.269999999999999 3.0499999999999994 2.4
  endloop
endfacet
facet normal -0.5 0.8660254037844387 0.0
  outer loop
    vertex 6.769999999999998 2.916025403784438 2.4
    vertex 7.011180954897477 3.0159258262890676 0.8999999999999999
    vertex 6.769999999999998 2.916025403784438 0.8999999999999999
  endloop
endfacet
facet normal -0.2588190451025203 0.9659258262890684 0.0
  outer loop
    vertex 7.011180954897477 3.0159258262890676 0.8999999999999999
    vertex 6.769999999999998 2.916025403784438 2.4
    vertex 7.011180954897477 3.0159258262890676 2.4
  endloop
endfacet
facet normal -0.7071067811865476 0.7071067811865476 0.0
  outer loop
    vertex 6.562893218813451 2.757106781186547 2.4
    vertex 6.769999999999998 2.916025403784438 0.8999999999999999
    vertex 6.562893218813451 2.757106781186547 0.8999999999999999
  endloop
endfacet
facet normal -0.5 0.8660254037844387 0.0
  outer loop
    vertex 6.769999999999998 2.916025403784438 0.8999999999999999
    vertex 6.562893218813451 2.757106781186547 2.4
    vertex 6.769999999999998 2.916025403784438 2.4
  endloop
endfacet
facet normal -0.7071067811865476 0.7071067811865476 0.0
  outer loop
    vertex 6.562893218813451 2.757106781186547 2.4
    vertex 6.403974596215559 2.5499999999999994 0.8999999999999999
    vertex 6.403974596215559 2.5499999999999994 2.4
  endloop
endfacet
facet normal -0.8660254037844393 0.4999999999999989 0.0
  outer loop
    vertex 6.403974596215559 2.5499999999999994 0.8999999999999999
    vertex 6.562893218813451 2.757106781186547 2.4
    vertex 6.562893218813451 2.757106781186547 0.8999999999999999
  endloop
endfacet
facet normal -0.8660254037844393 0.4999999999999989 0.0
  outer loop
    vertex 6.403974596215559 2.5499999999999994 2.4
    vertex 6.304074173710931 2.3088190451025206 0.8999999999999999
    vertex 6.304074173710931 2.3088190451025206 2.4
  endloop
endfacet
facet normal -0.9659258262890686 0.25881904510251924 0.0
  outer loop
    vertex 6.304074173710931 2.3088190451025206 0.8999999999999999
    vertex 6.403974596215559 2.5499999999999994 2.4
    vertex 6.403974596215559 2.5499999999999994 0.8999999999999999
  endloop
endfacet
facet normal -0.9659258262890686 0.25881904510251924 0.0
  outer loop
    vertex 6.304074173710931 2.3088190451025206 2.4
    vertex 6.269999999999999 2.05 0.8999999999999999
    vertex 6.269999999999999 2.05 2.4
  endloop
endfacet
facet normal -1.0 8.019998906082215e-17 0.0
  outer loop
    vertex 6.269999999999999 2.05 0.8999999999999999
    vertex 6.304074173710931 2.3088190451025206 2.4
    vertex 6.304074173710931 2.3088190451025206 0.8999999999999999
  endloop
endfacet
facet normal -1.0 8.019998906082215e-17 0.0
  outer loop
    vertex 6.269999999999999 2.05 2.4
    vertex 6.304074173710931 1.7911809548974789 0.8999999999999999
    vertex 6.304074173710931 1.7911809548974789 2.4
  endloop
endfacet
facet normal -0.9659258262890688 -0.25881904510251935 0.0
  outer loop
    vertex 6.304074173710931 1.7911809548974789 0.8999999999999999
    vertex 6.269999999999999 2.05 2.4
    vertex 6.269999999999999 2.05 0.8999999999999999
  endloop
endfacet
facet normal -0.9659258262890688 -0.25881904510251935 0.0
  outer loop
    vertex 6.304074173710931 1.7911809548974789 2.4
    vertex 6.403974596215559 1.5499999999999998 0.8999999999999999
    vertex 6.403974596215559 1.5499999999999998 2.4
  endloop
endfacet
facet normal -0.8660254037844393 -0.4999999999999989 0.0
  outer loop
    vertex 6.403974596215559 1.5499999999999998 0.8999999999999999
    vertex 6.304074173710931 1.7911809548974789 2.4
    vertex 6.304074173710931 1.7911809548974789 0.8999999999999999
  endloop
endfacet
facet normal -0.8660254037844393 -0.4999999999999989 0.0
  outer loop
    vertex 6.403974596215559 1.5499999999999998 2.4
    vertex 6.562893218813451 1.3428932188134521 0.8999999999999999
    vertex 6.562893218813451 1.3428932188134521 2.4
  endloop
endfacet
facet normal -0.7071067811865462 -0.707106781186549 0.0
  outer loop
    vertex 6.562893218813451 1.3428932188134521 0.8999999999999999
    vertex 6.403974596215559 1.5499999999999998 2.4
    vertex 6.403974596215559 1.5499999999999998 0.8999999999999999
  endloop
endfacet
facet normal -0.4999999999999993 -0.866025403784439 0.0
  outer loop
    vertex 6.77 1.1839745962155612 2.4
    vertex 6.562893218813451 1.3428932188134521 0.8999999999999999
    vertex 6.77 1.1839745962155612 0.8999999999999999
  endloop
endfacet
facet normal -0.7071067811865462 -0.707106781186549 0.0
  outer loop
    vertex 6.562893218813451 1.3428932188134521 0.8999999999999999
    vertex 6.77 1.1839745962155612 2.4
    vertex 6.562893218813451 1.3428932188134521 2.4
  endloop
endfacet
facet normal -0.25881904510252157 -0.9659258262890681 0.0
  outer loop
    vertex 7.011180954897477 1.0840741737109318 2.4
    vertex 6.77 1.1839745962155612 0.8999999999999999
    vertex 7.011180954897477 1.0840741737109318 0.8999999999999999
  endloop
endfacet
facet normal -0.4999999999999993 -0.866025403784439 0.0
  outer loop
    vertex 6.77 1.1839745962155612 0.8999999999999999
    vertex 7.011180954897477 1.0840741737109318 2.4
    vertex 6.77 1.1839745962155612 2.4
  endloop
endfacet
facet normal 3.475332859302293e-16 -1.0 0.0
  outer loop
    vertex 7.269999999999999 1.05 2.4
    vertex 7.011180954897477 1.0840741737109318 0.8999999999999999
    vertex 7.269999999999999 1.05 0.8999999999999999
  endloop
endfacet
facet normal -0.25881904510252157 -0.9659258262890681 0.0
  outer loop
    vertex 7.011180954897477 1.0840741737109318 0.8999999999999999
    vertex 7.269999999999999 1.05 2.4
    vertex 7.011180954897477 1.0840741737109318 2.4
  endloop
endfacet
facet normal 0.25881904510252113 -0.9659258262890682 0.0
  outer loop
    vertex 7.52881904510252 1.0840741737109318 2.4
    vertex 7.269999999999999 1.05 0.8999999999999999
    vertex 7.52881904510252 1.0840741737109318 0.8999999999999999
  endloop
endfacet
facet normal 3.475332859302293e-16 -1.0 0.0
  outer loop
    vertex 7.269999999999999 1.05 0.8999999999999999
    vertex 7.52881904510252 1.0840741737109318 2.4
    vertex 7.269999999999999 1.05 2.4
  endloop
endfacet
facet normal 0.5 -0.8660254037844386 0.0
  outer loop
    vertex 7.769999999999999 1.1839745962155617 2.4
    vertex 7.52881904510252 1.0840741737109318 0.8999999999999999
    vertex 7.769999999999999 1.1839745962155617 0.8999999999999999
  endloop
endfacet
facet normal 0.25881904510252113 -0.9659258262890682 0.0
  outer loop
    vertex 7.52881904510252 1.0840741737109318 0.8999999999999999
    vertex 7.769999999999999 1.1839745962155617 2.4
    vertex 7.52881904510252 1.0840741737109318 2.4
  endloop
endfacet
facet normal 0.7071067811865477 -0.7071067811865475 0.0
  outer loop
    vertex 7.977106781186547 1.3428932188134526 2.4
    vertex 7.769999999999999 1.1839745962155617 0.8999999999999999
    vertex 7.977106781186547 1.3428932188134526 0.8999999999999999
  endloop
endfacet
facet normal 0.5 -0.8660254037844386 0.0
  outer loop
    vertex 7.769999999999999 1.1839745962155617 0.8999999999999999
    vertex 7.977106781186547 1.3428932188134526 2.4
    vertex 7.769999999999999 1.1839745962155617 2.4
  endloop
endfacet
facet normal 0.8660254037844395 -0.4999999999999984 0.0
  outer loop
    vertex 8.136025403784437 1.5500000000000007 0.8999999999999999
    vertex 7.977106781186547 1.3428932188134526 2.4
    vertex 7.977106781186547 1.3428932188134526 0.8999999999999999
  endloop
endfacet
facet normal 0.7071067811865477 -0.7071067811865475 0.0
  outer loop
    vertex 7.977106781186547 1.3428932188134526 2.4
    vertex 8.136025403784437 1.5500000000000007 0.8999999999999999
    vertex 8.136025403784437 1.5500000000000007 2.4
  endloop
endfacet
facet normal 0.9659258262890685 -0.25881904510251946 0.0
  outer loop
    vertex 8.235925826289066 1.7911809548974795 0.8999999999999999
    vertex 8.136025403784437 1.5500000000000007 2.4
    vertex 8.136025403784437 1.5500000000000007 0.8999999999999999
  endloop
endfacet
facet normal 0.8660254037844395 -0.4999999999999984 0.0
  outer loop
    vertex 8.136025403784437 1.5500000000000007 2.4
    vertex 8.235925826289066 1.7911809548974795 0.8999999999999999
    vertex 8.235925826289066 1.7911809548974795 2.4
  endloop
endfacet
facet normal 1.0 -8.019998906082215e-17 0.0
  outer loop
    vertex 8.269999999999998 2.0500000000000003 0.8999999999999999
    vertex 8.235925826289066 1.7911809548974795 2.4
    vertex 8.235925826289066 1.7911809548974795 0.8999999999999999
  endloop
endfacet
facet normal 0.9659258262890685 -0.25881904510251946 0.0
  outer loop
    vertex 8.235925826289066 1.7911809548974795 2.4
    vertex 8.269999999999998 2.0500000000000003 0.8999999999999999
    vertex 8.269999999999998 2.0500000000000003 2.4
  endloop
endfacet
facet normal 0.0 0.0 1.0
  outer loop
    vertex 11.634074173710932 1.7911809548974789 2.4
    vertex 11.634074173710932 2.3088190451025206 2.4
    vertex 11.6 2.05 2.4
  endloop
endfacet
facet normal 0.0 0.0 1.0
  outer loop
    vertex 11.634074173710932 2.3088190451025206 2.4
    vertex 11.634074173710932 1.7911809548974789 2.4
    vertex 11.73397459621556 1.5499999999999998 2.4
  endloop
endfacet
facet normal 0.0 0.0 1.0
  outer loop
    vertex 11.634074173710932 2.3088190451025206 2.4
    vertex 11.73397459621556 1.5499999999999998 2.4
    vertex 11.73397459621556 2.5499999999999994 2.4
  endloop
endfacet
facet normal 0.0 0.0 1.0
  outer loop
    vertex 11.73397459621556 2.5499999999999994 2.4
    vertex 11.73397459621556 1.5499999999999998 2.4
    vertex 11.892893218813452 1.3428932188134521 2.4
  endloop
endfacet
facet normal 0.0 0.0 1.0
  outer loop
    vertex 11.73397459621556 2.5499999999999994 2.4
    vertex 11.892893218813452 1.3428932188134521 2.4
    vertex 11.892893218813452 2.757106781186547 2.4
  endloop
endfacet
facet normal 0.0 0.0 1.0
  outer loop
    vertex 11.892893218813452 2.757106781186547 2.4
    vertex 11.892893218813452 1.3428932188134521 2.4
    vertex 12.1 1.1839745962155612 2.4
  endloop
endfacet
facet normal 0.0 0.0 1.0
  outer loop
    vertex 11.892893218813452 2.757106781186547 2.4
    vertex 12.1 1.1839745962155612 2.4
    vertex 12.1 2.916025403784438 2.4
  endloop
endfacet
facet normal 0.0 0.0 1.0
  outer loop
    vertex 12.1 2.916025403784438 2.4
    vertex 12.1 1.1839745962155612 2.4
    vertex 12.341180954897478 1.0840741737109318 2.4
  endloop
endfacet
facet normal 0.0 0.0 1.0
  outer loop
    vertex 12.1 2.916025403784438 2.4
    vertex 12.341180954897478 1.0840741737109318 2.4
    vertex 12.341180954897478 3.0159258262890676 2.4
  endloop
endfacet
facet normal 0.0 0.0 1.0
  outer loop
    vertex 12.341180954897478 3.0159258262890676 2.4
    vertex 12.341180954897478 1.0840741737109318 2.4
    vertex 12.6 1.05 2.4
  endloop
endfacet
facet normal 0.0 0.0 1.0
  outer loop
    vertex 12.341180954897478 3.0159258262890676 2.4
    vertex 12.6 1.05 2.4
    vertex 12.6 3.0499999999999994 2.4
  endloop
endfacet
facet normal 0.0 0.0 1.0
  outer loop
    vertex 12.6 3.0499999999999994 2.4
    vertex 12.6 1.05 2.4
    vertex 12.858819045102523 1.0840741737109318 2.4
  endloop
endfacet
facet normal 0.0 0.0 1.0
  outer loop
    vertex 12.6 3.0499999999999994 2.4
    vertex 12.858819045102523 1.0840741737109318 2.4
    vertex 12.85881904510252 3.015925826289068 2.4
  endloop
endfacet
facet normal 0.0 0.0 1.0
  outer loop
    vertex 12.85881904510252 3.015925826289068 2.4
    vertex 12.858819045102523 1.0840741737109318 2.4
    vertex 13.099999999999998 2.916025403784438 2.4
  endloop
endfacet
facet normal 0.0 0.0 1.0
  outer loop
    vertex 13.099999999999998 2.916025403784438 2.4
    vertex 12.858819045102523 1.0840741737109318 2.4
    vertex 13.099999999999998 1.1839745962155617 2.4
  endloop
endfacet
facet normal 0.0 0.0 1.0
  outer loop
    vertex 13.099999999999998 2.916025403784438 2.4
    vertex 13.099999999999998 1.1839745962155617 2.4
    vertex 13.307106781186546 1.3428932188134524 2.4
  endloop
endfacet
facet normal 0.0 0.0 1.0
  outer loop
    vertex 13.099999999999998 2.916025403784438 2.4
    vertex 13.307106781186546 1.3428932188134524 2.4
    vertex 13.307106781186546 2.7571067811865477 2.4
  endloop
endfacet
facet normal 0.0 0.0 1.0
  outer loop
    vertex 13.307106781186546 2.7571067811865477 2.4
    vertex 13.307106781186546 1.3428932188134524 2.4
    vertex 13.466025403784439 1.5500000000000007 2.4
  endloop
endfacet
facet normal 0.0 0.0 1.0
  outer loop
    vertex 13.307106781186546 2.7571067811865477 2.4
    vertex 13.466025403784439 1.5500000000000007 2.4
    vertex 13.466025403784439 2.5500000000000003 2.4
  endloop
endfacet
facet normal 0.0 0.0 1.0
  outer loop
    vertex 13.466025403784439 2.5500000000000003 2.4
    vertex 13.466025403784439 1.5500000000000007 2.4
    vertex 13.56592582628907 1.7911809548974795 2.4
  endloop
endfacet
facet normal 0.0 0.0 1.0
  outer loop
    vertex 13.466025403784439 2.5500000000000003 2.4
    vertex 13.56592582628907 1.7911809548974795 2.4
    vertex 13.56592582628907 2.308819045102521 2.4
  endloop
endfacet
facet normal 0.0 0.0 1.0
  outer loop
    vertex 13.56592582628907 2.308819045102521 2.4
    vertex 13.56592582628907 1.7911809548974795 2.4
    vertex 13.6 2.0500000000000003 2.4
  endloop
endfacet
facet normal 0.9659258262890679 -0.2588190451025219 0.0
  outer loop
    vertex 13.56592582628907 1.7911809548974795 0.8999999999999999
    vertex 13.466025403784439 1.5500000000000007 2.4
    vertex 13.466025403784439 1.5500000000000007 0.8999999999999999
  endloop
endfacet
facet normal 0.8660254037844374 -0.5000000000000023 0.0
  outer loop
    vertex 13.466025403784439 1.5500000000000007 2.4
    vertex 13.56592582628907 1.7911809548974795 0.8999999999999999
    vertex 13.56592582628907 1.7911809548974795 2.4
  endloop
endfacet
facet normal 1.0 -8.019998906082215e-17 0.0
  outer loop
    vertex 13.6 2.0500000000000003 0.8999999999999999
    vertex 13.56592582628907 1.7911809548974795 2.4
    vertex 13.56592582628907 1.7911809548974795 0.8999999999999999
  endloop
endfacet
facet normal 0.9659258262890679 -0.2588190451025219 0.0
  outer loop
    vertex 13.56592582628907 1.7911809548974795 2.4
    vertex 13.6 2.0500000000000003 0.8999999999999999
    vertex 13.6 2.0500000000000003 2.4
  endloop
endfacet
facet normal 0.9659258262890681 0.25881904510252157 0.0
  outer loop
    vertex 13.56592582628907 2.308819045102521 0.8999999999999999
    vertex 13.6 2.0500000000000003 2.4
    vertex 13.6 2.0500000000000003 0.8999999999999999
  endloop
endfacet
facet normal 1.0 -8.019998906082215e-17 0.0
  outer loop
    vertex 13.6 2.0500000000000003 2.4
    vertex 13.56592582628907 2.308819045102521 0.8999999999999999
    vertex 13.56592582628907 2.308819045102521 2.4
  endloop
endfacet
facet normal 0.866025403784437 0.500000000000003 0.0
  outer loop
    vertex 13.466025403784439 2.5500000000000003 0.8999999999999999
    vertex 13.56592582628907 2.308819045102521 2.4
    vertex 13.56592582628907 2.308819045102521 0.8999999999999999
  endloop
endfacet
facet normal 0.9659258262890681 0.25881904510252157 0.0
  outer loop
    vertex 13.56592582628907 2.308819045102521 2.4
    vertex 13.466025403784439 2.5500000000000003 0.8999999999999999
    vertex 13.466025403784439 2.5500000000000003 2.4
  endloop
endfacet
facet normal 0.7071067811865452 0.7071067811865498 0.0
  outer loop
    vertex 13.307106781186546 2.7571067811865477 0.8999999999999999
    vertex 13.466025403784439 2.5500000000000003 2.4
    vertex 13.466025403784439 2.5500000000000003 0.8999999999999999
  endloop
endfacet
facet normal 0.866025403784437 0.500000000000003 0.0
  outer loop
    vertex 13.466025403784439 2.5500000000000003 2.4
    vertex 13.307106781186546 2.7571067811865477 0.8999999999999999
    vertex 13.307106781186546 2.7571067811865477 2.4
  endloop
endfacet
facet normal 0.4999999999999997 0.8660254037844389 0.0
  outer loop
    vertex 13.099999999999998 2.916025403784438 2.4
    vertex 13.307106781186546 2.7571067811865477 0.8999999999999999
    vertex 13.099999999999998 2.916025403784438 0.8999999999999999
  endloop
endfacet
facet normal 0.7071067811865452 0.7071067811865498 0.0
  outer loop
    vertex 13.307106781186546 2.7571067811865477 0.8999999999999999
    vertex 13.099999999999998 2.916025403784438 2.4
    vertex 13.307106781186546 2.7571067811865477 2.4
  endloop
endfacet
facet normal 0.2588190451025206 0.9659258262890684 0.0
  outer loop
    vertex 12.85881904510252 3.015925826289068 2.4
    vertex 13.099999999999998 2.916025403784438 0.8999999999999999
    vertex 12.85881904510252 3.015925826289068 0.8999999999999999
  endloop
endfacet
facet normal 0.4999999999999997 0.8660254037844389 0.0
  outer loop
    vertex 13.099999999999998 2.916025403784438 0.8999999999999999
    vertex 12.85881904510252 3.015925826289068 2.4
    vertex 13.099999999999998 2.916025403784438 2.4
  endloop
endfacet
facet normal -3.1188884634764164e-16 1.0 0.0
  outer loop
    vertex 12.6 3.0499999999999994 2.4
    vertex 12.85881904510252 3.015925826289068 0.8999999999999999
    vertex 12.6 3.0499999999999994 0.8999999999999999
  endloop
endfacet
facet normal 0.2588190451025206 0.9659258262890684 0.0
  outer loop
    vertex 12.85881904510252 3.015925826289068 0.8999999999999999
    vertex 12.6 3.0499999999999994 2.4
    vertex 12.85881904510252 3.015925826289068 2.4
  endloop
endfacet
facet normal -0.2588190451025203 0.9659258262890684 0.0
  outer loop
    vertex 12.341180954897478 3.0159258262890676 2.4
    vertex 12.6 3.0499999999999994 0.8999999999999999
    vertex 12.341180954897478 3.0159258262890676 0.8999999999999999
  endloop
endfacet
facet normal -3.1188884634764164e-16 1.0 0.0
  outer loop
    vertex 12.6 3.0499999999999994 0.8999999999999999
    vertex 12.341180954897478 3.0159258262890676 2.4
    vertex 12.6 3.0499999999999994 2.4
  endloop
endfacet
facet normal -0.5 0.8660254037844387 0.0
  outer loop
    vertex 12.1 2.916025403784438 2.4
    vertex 12.341180954897478 3.0159258262890676 0.8999999999999999
    vertex 12.1 2.916025403784438 0.8999999999999999
  endloop
endfacet
facet normal -0.2588190451025203 0.9659258262890684 0.0
  outer loop
    vertex 12.341180954897478 3.0159258262890676 0.8999999999999999
    vertex 12.1 2.916025403784438 2.4
    vertex 12.341180954897478 3.0159258262890676 2.4
  endloop
endfacet
facet normal -0.7071067811865476 0.7071067811865476 0.0
  outer loop
    vertex 11.892893218813452 2.757106781186547 2.4
    vertex 12.1 2.916025403784438 0.8999999999999999
    vertex 11.892893218813452 2.757106781186547 0.8999999999999999
  endloop
endfacet
facet normal -0.5 0.8660254037844387 0.0
  outer loop
    vertex 12.1 2.916025403784438 0.8999999999999999
    vertex 11.892893218813452 2.757106781186547 2.4
    vertex 12.1 2.916025403784438 2.4
  endloop
endfacet
facet normal -0.7071067811865476 0.7071067811865476 0.0
  outer loop
    vertex 11.892893218813452 2.757106781186547 2.4
    vertex 11.73397459621556 2.5499999999999994 0.8999999999999999
    vertex 11.73397459621556 2.5499999999999994 2.4
  endloop
endfacet
facet normal -0.8660254037844393 0.4999999999999989 0.0
  outer loop
    vertex 11.73397459621556 2.5499999999999994 0.8999999999999999
    vertex 11.892893218813452 2.757106781186547 2.4
    vertex 11.892893218813452 2.757106781186547 0.8999999999999999
  endloop
endfacet
facet normal -0.8660254037844393 0.4999999999999989 0.0
  outer loop
    vertex 11.73397459621556 2.5499999999999994 2.4
    vertex 11.634074173710932 2.3088190451025206 0.8999999999999999
    vertex 11.634074173710932 2.3088190451025206 2.4
  endloop
endfacet
facet normal -0.9659258262890686 0.25881904510251924 0.0
  outer loop
    vertex 11.634074173710932 2.3088190451025206 0.8999999999999999
    vertex 11.73397459621556 2.5499999999999994 2.4
    vertex 11.73397459621556 2.5499999999999994 0.8999999999999999
  endloop
endfacet
facet normal -0.9659258262890686 0.25881904510251924 0.0
  outer loop
    vertex 11.634074173710932 2.3088190451025206 2.4
    vertex 11.6 2.05 0.8999999999999999
    vertex 11.6 2.05 2.4
  endloop
endfacet
facet normal -1.0 8.019998906082215e-17 0.0
  outer loop
    vertex 11.6 2.05 0.8999999999999999
    vertex 11.634074173710932 2.3088190451025206 2.4
    vertex 11.634074173710932 2.3088190451025206 0.8999999999999999
  endloop
endfacet
facet normal -1.0 8.019998906082215e-17 0.0
  outer loop
    vertex 11.6 2.05 2.4
    vertex 11.634074173710932 1.7911809548974789 0.8999999999999999
    vertex 11.634074173710932 1.7911809548974789 2.4
  endloop
endfacet
facet normal -0.9659258262890688 -0.25881904510251935 0.0
  outer loop
    vertex 11.634074173710932 1.7911809548974789 0.8999999999999999
    vertex 11.6 2.05 2.4
    vertex 11.6 2.05 0.8999999999999999
  endloop
endfacet
facet normal -0.9659258262890688 -0.25881904510251935 0.0
  outer loop
    vertex 11.634074173710932 1.7911809548974789 2.4
    vertex 11.73397459621556 1.5499999999999998 0.8999999999999999
    vertex 11.73397459621556 1.5499999999999998 2.4
  endloop
endfacet
facet normal -0.8660254037844393 -0.4999999999999989 0.0
  outer loop
    vertex 11.73397459621556 1.5499999999999998 0.8999999999999999
    vertex 11.634074173710932 1.7911809548974789 2.4
    vertex 11.634074173710932 1.7911809548974789 0.8999999999999999
  endloop
endfacet
facet normal -0.8660254037844393 -0.4999999999999989 0.0
  outer loop
    vertex 11.73397459621556 1.5499999999999998 2.4
    vertex 11.892893218813452 1.3428932188134521 0.8999999999999999
    vertex 11.892893218813452 1.3428932188134521 2.4
  endloop
endfacet
facet normal -0.7071067811865474 -0.7071067811865477 0.0
  outer loop
    vertex 11.892893218813452 1.3428932188134521 0.8999999999999999
    vertex 11.73397459621556 1.5499999999999998 2.4
    vertex 11.73397459621556 1.5499999999999998 0.8999999999999999
  endloop
endfacet
facet normal -0.4999999999999998 -0.8660254037844388 0.0
  outer loop
    vertex 12.1 1.1839745962155612 2.4
    vertex 11.892893218813452 1.3428932188134521 0.8999999999999999
    vertex 12.1 1.1839745962155612 0.8999999999999999
  endloop
endfacet
facet normal -0.7071067811865474 -0.7071067811865477 0.0
  outer loop
    vertex 11.892893218813452 1.3428932188134521 0.8999999999999999
    vertex 12.1 1.1839745962155612 2.4
    vertex 11.892893218813452 1.3428932188134521 2.4
  endloop
endfacet
facet normal -0.2588190451025206 -0.9659258262890684 0.0
  outer loop
    vertex 12.341180954897478 1.0840741737109318 2.4
    vertex 12.1 1.1839745962155612 0.8999999999999999
    vertex 12.341180954897478 1.0840741737109318 0.8999999999999999
  endloop
endfacet
facet normal -0.4999999999999998 -0.8660254037844388 0.0
  outer loop
    vertex 12.1 1.1839745962155612 0.8999999999999999
    vertex 12.341180954897478 1.0840741737109318 2.4
    vertex 12.1 1.1839745962155612 2.4
  endloop
endfacet
facet normal -1.7822219791293813e-17 -1.0 0.0
  outer loop
    vertex 12.6 1.05 2.4
    vertex 12.341180954897478 1.0840741737109318 0.8999999999999999
    vertex 12.6 1.05 0.8999999999999999
  endloop
endfacet
facet normal -0.2588190451025206 -0.9659258262890684 0.0
  outer loop
    vertex 12.341180954897478 1.0840741737109318 0.8999999999999999
    vertex 12.6 1.05 2.4
    vertex 12.341180954897478 1.0840741737109318 2.4
  endloop
endfacet
facet normal 0.2588190451025229 -0.9659258262890678 0.0
  outer loop
    vertex 12.858819045102523 1.0840741737109318 2.4
    vertex 12.6 1.05 0.8999999999999999
    vertex 12.858819045102523 1.0840741737109318 0.8999999999999999
  endloop
endfacet
facet normal -1.7822219791293813e-17 -1.0 0.0
  outer loop
    vertex 12.6 1.05 0.8999999999999999
    vertex 12.858819045102523 1.0840741737109318 2.4
    vertex 12.6 1.05 2.4
  endloop
endfacet
facet normal 0.5000000000000018 -0.8660254037844378 0.0
  outer loop
    vertex 13.099999999999998 1.1839745962155617 2.4
    vertex 12.858819045102523 1.0840741737109318 0.8999999999999999
    vertex 13.099999999999998 1.1839745962155617 0.8999999999999999
  endloop
endfacet
facet normal 0.2588190451025229 -0.9659258262890678 0.0
  outer loop
    vertex 12.858819045102523 1.0840741737109318 0.8999999999999999
    vertex 13.099999999999998 1.1839745962155617 2.4
    vertex 12.858819045102523 1.0840741737109318 2.4
  endloop
endfacet
facet normal 0.7071067811865461 -0.707106781186549 0.0
  outer loop
    vertex 13.307106781186546 1.3428932188134524 2.4
    vertex 13.099999999999998 1.1839745962155617 0.8999999999999999
    vertex 13.307106781186546 1.3428932188134524 0.8999999999999999
  endloop
endfacet
facet normal 0.5000000000000018 -0.8660254037844378 0.0
  outer loop
    vertex 13.099999999999998 1.1839745962155617 0.8999999999999999
    vertex 13.307106781186546 1.3428932188134524 2.4
    vertex 13.099999999999998 1.1839745962155617 2.4
  endloop
endfacet
facet normal 0.8660254037844374 -0.5000000000000023 0.0
  outer loop
    vertex 13.466025403784439 1.5500000000000007 0.8999999999999999
    vertex 13.307106781186546 1.3428932188134524 2.4
    vertex 13.307106781186546 1.3428932188134524 0.8999999999999999
  endloop
endfacet
facet normal 0.7071067811865461 -0.707106781186549 0.0
  outer loop
    vertex 13.307106781186546 1.3428932188134524 2.4
    vertex 13.466025403784439 1.5500000000000007 0.8999999999999999
    vertex 13.466025403784439 1.5500000000000007 2.4
  endloop
endfacet
endsolid Sunglass Accent
